<svg width="166" height="160" viewBox="0 0 166 160" fill="none" xmlns="http://www.w3.org/2000/svg">
<rect width="165.588" height="160" rx="80" fill="white"/>
<path d="M80.0621 59.2109C98.5001 51.8779 118.664 57.6689 127.82 66.5359C129.804 68.4569 131.489 70.4059 132.932 72.3429C133.755 67.7949 133.822 63.2649 133.03 58.8839C130.137 42.8879 115.046 33.8259 101.517 38.5069C88.0491 43.1669 82.7961 52.2239 82.7961 52.2239C82.7961 52.2239 77.5431 43.1669 64.0751 38.5069C50.5451 33.8259 35.4541 42.8889 32.5621 58.8839C30.4271 70.6889 34.4701 83.5769 43.0491 94.9659C44.8561 95.5729 46.7501 96.0289 48.7561 96.2919C60.7741 97.8719 65.0941 94.6579 70.1711 92.5059C73.5421 91.0779 76.0781 92.6989 75.9551 93.8349C75.7641 95.5959 69.1191 98.6049 70.5441 99.2369C76.1701 101.733 83.0981 101.754 88.3191 97.2949C94.8071 91.7549 97.2341 95.5419 97.2341 95.5419C97.2341 95.5419 94.0121 103.761 84.3101 107.842C76.2151 111.247 67.7331 112.086 59.9821 111.214C66.6671 115.939 74.3431 119.9 82.7961 122.727C106.963 114.643 124.816 97.3249 131.11 79.2189C126.846 75.0119 121.616 72.4039 115.382 71.4589C103.397 69.6419 99.0151 72.7709 93.8961 74.8219C90.4971 76.1839 87.9941 74.5129 88.1401 73.3789C88.3651 71.6219 95.0691 68.7449 93.6561 68.0839C88.0811 65.4779 81.1541 65.3199 75.8461 69.6749C69.2501 75.0859 66.8981 71.2519 66.8981 71.2519C66.8981 71.2519 70.2811 63.0999 80.0621 59.2109ZM75.4751 81.7399H80.1311V77.0839H85.4591V81.7399H90.1151V87.0679H85.4591V91.7239H80.1311V87.0679H75.4751V81.7399Z" fill="url(#paint0_linear_2025_1231)"/>
<path d="M75.4752 81.74H80.1312V77.084H85.4592V81.74H90.1152V87.068H85.4941C92.3591 90.537 104.967 95.698 120.118 97.994C125.104 92.096 128.853 85.709 131.109 79.219C126.845 75.012 121.615 72.4039 115.381 71.459C103.396 69.6419 99.0141 72.771 93.8951 74.8219C90.4962 76.1839 87.9932 74.513 88.1392 73.379C88.3642 71.622 95.0682 68.7449 93.6552 68.0839C88.0802 65.4779 81.1532 65.32 75.8452 69.675C69.2492 75.086 66.8972 71.2519 66.8972 71.2519C66.8972 71.2519 70.2812 63.0989 80.0611 59.2089C98.4991 51.8759 118.663 57.667 127.819 66.534C129.803 68.455 131.488 70.404 132.931 72.341C133.754 67.793 133.821 63.263 133.029 58.882C130.136 42.886 115.045 33.8239 101.516 38.5049C88.0481 43.1649 82.7952 52.2219 82.7952 52.2219C82.7952 52.2219 77.5422 43.1649 64.0742 38.5049C56.3472 35.8309 48.1132 37.647 41.9312 42.671C44.8352 48.889 48.2372 54.699 57.9282 66.384C65.8072 75.886 75.4752 81.74 75.4752 81.74Z" fill="url(#paint1_linear_2025_1231)"/>
<path opacity="0.31" d="M117.829 44.2549C105.106 37.8629 91.9752 47.8089 87.8102 53.0609C94.9932 51.5479 101.278 50.7719 109.231 52.4429C120.996 54.9149 125.399 59.1629 130.652 65.4389C129.724 53.8099 122.379 46.5409 117.829 44.2549Z" fill="url(#paint2_linear_2025_1231)"/>
<defs>
<linearGradient id="paint0_linear_2025_1231" x1="45.5403" y1="105.903" x2="120.19" y2="31.2536" gradientUnits="userSpaceOnUse">
<stop stop-color="#0076C1"/>
<stop offset="0.0737" stop-color="#0B82C6"/>
<stop offset="0.2766" stop-color="#269ED3"/>
<stop offset="0.4546" stop-color="#36AFDA"/>
<stop offset="0.587" stop-color="#3CB5DD"/>
</linearGradient>
<linearGradient id="paint1_linear_2025_1231" x1="45.2861" y1="106.073" x2="120.159" y2="31.1995" gradientUnits="userSpaceOnUse">
<stop stop-color="#00A482"/>
<stop offset="1" stop-color="#79DD83"/>
</linearGradient>
<linearGradient id="paint2_linear_2025_1231" x1="107.602" y1="60.5844" x2="123.128" y2="46.2174" gradientUnits="userSpaceOnUse">
<stop stop-color="#00A482"/>
<stop offset="1" stop-color="#79DD83"/>
</linearGradient>
</defs>
</svg>
